<?xml version="1.0"?>
<svg width="188" height="26" xmlns="http://www.w3.org/2000/svg" xmlns:svg="http://www.w3.org/2000/svg">
 <defs>
  <linearGradient id="id0" x1="0.8" x2="0.23" y1="0.03" y2="1.67">
   <stop offset="0" stop-color="#A92F33"/>
   <stop offset="1" stop-color="#E62129"/>
  </linearGradient>
  <linearGradient id="id1" x1="0.26" x2="0.74" y1="0.1" y2="0.9">
   <stop offset="0" stop-color="#A92F33"/>
   <stop offset="1" stop-color="#E8443F"/>
  </linearGradient>
  <linearGradient id="id2" x1="0.3" x2="0.7" y1="0.72" y2="0.28">
   <stop offset="0" stop-color="#E62129"/>
   <stop offset="1" stop-color="#E8443F"/>
  </linearGradient>
 </defs>
 <g class="layer">
  <title>Layer 1</title>
  <path d="m73.73,10.5l0,9.74l-5.02,0l0,-1c-0.13,0.25 -0.39,0.48 -0.79,0.68c-0.4,0.21 -0.76,0.32 -1.08,0.32l-13.59,0c-0.37,0 -0.73,-0.08 -1.11,-0.24c-0.37,-0.16 -0.68,-0.39 -0.91,-0.69c-0.23,-0.29 -0.35,-0.62 -0.36,-0.99c-0.01,-0.71 -0.02,-1.59 -0.03,-2.68c-0.01,-1.08 -0.02,-1.65 -0.02,-1.71c0,-0.81 0.26,-1.44 0.76,-1.9c0.5,-0.47 1.09,-0.7 1.75,-0.7l12.85,0c0.6,0 1.12,0.13 1.55,0.39c0.45,0.26 0.77,0.52 0.96,0.78l0,-1.3c0,-0.27 -0.09,-0.55 -0.28,-0.84c-0.19,-0.28 -0.47,-0.52 -0.82,-0.71c-0.34,-0.18 -0.76,-0.27 -1.22,-0.27l-15.38,0l0,-3.47l17.34,0c0.74,0 1.42,0.15 2.08,0.46c0.66,0.31 1.22,0.71 1.72,1.19c0.5,0.49 0.89,1 1.16,1.53c0.28,0.52 0.41,0.99 0.41,1.41zm-5.97,5.29c0,-0.18 -0.07,-0.35 -0.23,-0.49c-0.16,-0.15 -0.35,-0.27 -0.58,-0.37c-0.23,-0.09 -0.42,-0.13 -0.56,-0.13l-9.49,0c-0.43,0 -0.73,0.13 -0.91,0.38c-0.17,0.26 -0.26,0.45 -0.26,0.59c0,0.3 0.11,0.54 0.34,0.72c0.22,0.18 0.44,0.26 0.67,0.26l9.92,0c0.22,0 0.46,-0.09 0.72,-0.29c0.26,-0.2 0.38,-0.42 0.38,-0.67zm29.72,-7.13l0,3.36c0,0.8 -0.23,1.48 -0.68,2.03c-0.45,0.55 -1.2,0.83 -2.26,0.83l-13.69,0l0,5.36l-4.81,0l0,-8.82l15.64,0c0.21,0 0.42,-0.1 0.63,-0.32c0.21,-0.2 0.32,-0.43 0.32,-0.69c0,-0.25 -0.09,-0.45 -0.27,-0.61c-0.17,-0.17 -0.41,-0.3 -0.71,-0.38c-0.29,-0.08 -0.59,-0.12 -0.89,-0.12l-14.73,0l0,-3.39l18.04,0c1.25,0 2.13,0.26 2.64,0.78c0.51,0.52 0.76,1.18 0.76,1.97zm7.34,-2.75l0,14.31l-4.81,0l0,-14.31l4.81,0zm23.97,7.92l0,4.2c0,0.61 -0.2,1.13 -0.61,1.56c-0.41,0.43 -0.99,0.65 -1.72,0.65l-19.36,0l0,-3.51l15.52,0c0.28,0 0.57,-0.09 0.87,-0.26c0.31,-0.17 0.46,-0.43 0.46,-0.78c0,-0.19 -0.06,-0.37 -0.19,-0.53c-0.13,-0.16 -0.33,-0.3 -0.58,-0.4c-0.26,-0.09 -0.54,-0.14 -0.85,-0.14l-11.75,0c-0.56,0 -1.06,-0.12 -1.49,-0.37c-0.45,-0.25 -0.79,-0.53 -1.02,-0.85c-0.24,-0.32 -0.36,-0.59 -0.36,-0.79l0,-4.65c0,-0.4 0.26,-0.84 0.78,-1.32c0.52,-0.49 1.18,-0.72 2,-0.72l17.38,0l0,3.39l-14.36,0c-0.29,0 -0.53,0.11 -0.71,0.32c-0.18,0.21 -0.27,0.43 -0.27,0.67c0,0.21 0.12,0.44 0.37,0.68c0.25,0.24 0.6,0.36 1.05,0.36l11.77,0c1.05,0 1.81,0.23 2.31,0.69c0.5,0.46 0.75,1.07 0.75,1.81zm7.66,-7.92l0,14.31l-4.81,0l0,-14.31l4.81,0zm18.95,7.27l8.23,7.04l-6.7,0l-6.07,-5.35l-6.04,5.36l-6.81,0l8.29,-7.12l-7.31,-7.19l5.87,0l5.88,5.41l6.01,-5.41l6.23,0l-7.6,7.25z" fill="rgb(51, 51, 51)" id="svg_4"/>
  <g id="svg_5">
   <path class="fil1" d="m8.03,24.74l7.51,-10.9l-2.37,-3.71l-6.92,8.21c0,0 0,0 0,0c0,0 0,0 0,0c-2.3,2.73 -2.67,3.41 -4.59,6.61l6.36,-0.22l0,0z" fill="url(#id0)" id="svg_1"/>
   <path class="fil2" d="m26.68,24.96l3.05,-0.01l-13.69,-23.78l0,0l6.61,23.79l4.03,0l0,0zm-10.64,-23.79l-3.46,5.72l0.7,-1.15l2.77,-4.57l0,0z" fill="url(#id1)" id="svg_2"/>
   <polygon class="fil3" fill="url(#id2)" id="svg_3" points="13.170620951532968,10.136433657334564 22.643300447567256,24.957045703332696 16.035388824267287,1.1654406785964966 16.035388824267287,1.1654406785964966 16.035388824267287,1.1654406785964966 13.272427142894301,5.73418071198607 1.6633018255233765,24.957045703332696 "/>
  </g>
 </g>
</svg>